<svg width="500" height="500" viewBox="0 0 500 500" fill="none" xmlns="http://www.w3.org/2000/svg">
<g clip-path="url(#clip0_1_2)">
<path fill-rule="evenodd" clip-rule="evenodd" d="M125 78.125H280.625C299.747 78.1279 318.204 85.1438 332.5 97.8438L363.031 125H177.719C171.514 125.001 165.37 123.778 159.638 121.403C153.906 119.027 148.698 115.545 144.312 111.156L141.438 108.312L112.844 79.7188C116.719 78.6875 120.812 78.125 125 78.125ZM79.6875 112.844C78.6573 116.814 78.1324 120.898 78.125 125V280.625C78.1279 299.747 85.1438 318.204 97.8438 332.5L125 363.031V181.781C124.997 166.648 118.983 152.137 108.281 141.438L79.6875 112.844ZM218.75 171.875C206.318 171.875 194.395 176.814 185.604 185.604C176.814 194.395 171.875 206.318 171.875 218.75V375C171.875 387.432 176.814 399.355 185.604 408.146C194.395 416.936 206.318 421.875 218.75 421.875H375C387.432 421.875 399.355 416.936 408.146 408.146C416.936 399.355 421.875 387.432 421.875 375V218.75C421.875 206.318 416.936 194.395 408.146 185.604C399.355 176.814 387.432 171.875 375 171.875H218.75ZM218.75 468.75H198.344C185.106 468.749 172.018 465.944 159.942 460.52C147.866 455.096 137.076 447.176 128.281 437.281L62.8125 363.656C42.4737 340.769 31.2427 311.212 31.25 280.594V125C31.25 100.136 41.1272 76.2903 58.7087 58.7087C76.2903 41.1272 100.136 31.25 125 31.25H280.625C311.233 31.2504 340.777 42.4809 363.656 62.8125L437.281 128.281C447.176 137.076 455.096 147.866 460.52 159.942C465.944 172.018 468.749 185.106 468.75 198.344V375C468.75 399.864 458.873 423.71 441.291 441.291C423.71 458.873 399.864 468.75 375 468.75H218.75Z" fill="black"/>
<path d="M218.687 394V202H259.281V281.219H341.687V202H382.188V394H341.687V314.687H259.281V394H218.687Z" fill="black"/>
</g>
<defs>
<clipPath id="clip0_1_2">
<rect width="500" height="500" fill="white"/>
</clipPath>
</defs>
</svg>
